<svg width="197" height="64" viewBox="0 0 197 64" fill="none" xmlns="http://www.w3.org/2000/svg">
<path d="M8.60156 11.4141V30.8203C10.7109 28.6328 13.1016 27.5391 15.7734 27.5391C18.8516 27.5391 21.4141 28.6875 23.4609 30.9844C25.5078 33.2656 26.5312 36.1094 26.5312 39.5156C26.5312 43.0312 25.5 45.9375 23.4375 48.2344C21.3906 50.5156 18.8047 51.6562 15.6797 51.6562C13.0391 51.6562 10.6797 50.6406 8.60156 48.6094V51H3.32812V11.4141H8.60156ZM21.1406 39.75C21.1406 37.5625 20.5469 35.7812 19.3594 34.4062C18.1562 33 16.6484 32.2969 14.8359 32.2969C12.8984 32.2969 11.3203 32.9766 10.1016 34.3359C8.89844 35.6797 8.29688 37.4297 8.29688 39.5859C8.29688 41.8047 8.89062 43.5781 10.0781 44.9062C11.2656 46.2656 12.8281 46.9453 14.7656 46.9453C16.5938 46.9453 18.1094 46.2656 19.3125 44.9062C20.5312 43.5312 21.1406 41.8125 21.1406 39.75ZM36.7913 39.4219C36.7913 36.125 37.9709 33.3203 40.3303 31.0078C42.6897 28.6953 45.5647 27.5391 48.9553 27.5391C52.3616 27.5391 55.2522 28.7031 57.6272 31.0312C59.9709 33.3594 61.1428 36.2188 61.1428 39.6094C61.1428 43.0312 59.9631 45.8984 57.6038 48.2109C55.2288 50.5078 52.3147 51.6562 48.8616 51.6562C45.4397 51.6562 42.5725 50.4844 40.26 48.1406C37.9475 45.8281 36.7913 42.9219 36.7913 39.4219ZM42.1819 39.5156C42.1819 41.7969 42.7913 43.6016 44.01 44.9297C45.26 46.2734 46.9084 46.9453 48.9553 46.9453C51.0178 46.9453 52.6663 46.2812 53.9006 44.9531C55.135 43.625 55.7522 41.8516 55.7522 39.6328C55.7522 37.4141 55.135 35.6406 53.9006 34.3125C52.6506 32.9688 51.0022 32.2969 48.9553 32.2969C46.9397 32.2969 45.3069 32.9688 44.0569 34.3125C42.8069 35.6562 42.1819 37.3906 42.1819 39.5156Z" fill="white"/>
<path d="M89.3325 63.4219V48.4453C87.2388 50.5859 84.8481 51.6562 82.1606 51.6562C79.0825 51.6562 76.5278 50.5234 74.4966 48.2578C72.4497 45.9766 71.4263 43.125 71.4263 39.7031C71.4263 36.2344 72.4497 33.3359 74.4966 31.0078C76.5591 28.6953 79.145 27.5391 82.2544 27.5391C84.895 27.5391 87.2544 28.5781 89.3325 30.6562V28.1719H94.6294V63.4219H89.3325ZM76.8169 39.4688C76.8169 41.6719 77.4106 43.4609 78.5981 44.8359C79.7856 46.2422 81.2934 46.9453 83.1216 46.9453C85.0591 46.9453 86.6294 46.2734 87.8325 44.9297C89.0513 43.5703 89.6606 41.8047 89.6606 39.6328C89.6606 37.4922 89.0591 35.7266 87.8559 34.3359C86.6528 32.9766 85.0903 32.2969 83.1684 32.2969C81.3559 32.2969 79.8403 32.9844 78.6216 34.3594C77.4184 35.75 76.8169 37.4531 76.8169 39.4688Z" fill="#FC9155"/>
<path d="M112.319 28.1719V41.2734C112.319 45.0547 113.811 46.9453 116.796 46.9453C119.78 46.9453 121.272 45.0547 121.272 41.2734V28.1719H126.546V41.3906C126.546 43.2188 126.319 44.7969 125.866 46.125C125.428 47.3125 124.671 48.3828 123.592 49.3359C121.811 50.8828 119.546 51.6562 116.796 51.6562C114.061 51.6562 111.803 50.8828 110.022 49.3359C108.928 48.3828 108.155 47.3125 107.702 46.125C107.264 45.0625 107.046 43.4844 107.046 41.3906V28.1719H112.319ZM138.962 28.1719H144.259V30.2812C146.103 28.4531 148.181 27.5391 150.493 27.5391C153.149 27.5391 155.22 28.375 156.704 30.0469C157.985 31.4688 158.626 33.7891 158.626 37.0078V51H153.329V38.25C153.329 36 153.017 34.4453 152.392 33.5859C151.782 32.7109 150.673 32.2734 149.063 32.2734C147.313 32.2734 146.071 32.8516 145.337 34.0078C144.618 35.1484 144.259 37.1406 144.259 39.9844V51H138.962V28.1719ZM169.988 39.4219C169.988 36.125 171.167 33.3203 173.527 31.0078C175.886 28.6953 178.761 27.5391 182.152 27.5391C185.558 27.5391 188.448 28.7031 190.823 31.0312C193.167 33.3594 194.339 36.2188 194.339 39.6094C194.339 43.0312 193.159 45.8984 190.8 48.2109C188.425 50.5078 185.511 51.6562 182.058 51.6562C178.636 51.6562 175.769 50.4844 173.456 48.1406C171.144 45.8281 169.988 42.9219 169.988 39.4219ZM175.378 39.5156C175.378 41.7969 175.988 43.6016 177.206 44.9297C178.456 46.2734 180.105 46.9453 182.152 46.9453C184.214 46.9453 185.863 46.2812 187.097 44.9531C188.331 43.625 188.948 41.8516 188.948 39.6328C188.948 37.4141 188.331 35.6406 187.097 34.3125C185.847 32.9688 184.198 32.2969 182.152 32.2969C180.136 32.2969 178.503 32.9688 177.253 34.3125C176.003 35.6562 175.378 37.3906 175.378 39.5156Z" fill="#222222"/>
</svg>
