<svg width="203" height="110" viewBox="0 0 203 110" fill="none" xmlns="http://www.w3.org/2000/svg">
<circle cx="55" cy="55" r="55" fill="#FFE090"/>
<path d="M14.6016 29.4141V48.8203C16.7109 46.6328 19.1016 45.5391 21.7734 45.5391C24.8516 45.5391 27.4141 46.6875 29.4609 48.9844C31.5078 51.2656 32.5312 54.1094 32.5312 57.5156C32.5312 61.0312 31.5 63.9375 29.4375 66.2344C27.3906 68.5156 24.8047 69.6562 21.6797 69.6562C19.0391 69.6562 16.6797 68.6406 14.6016 66.6094V69H9.32812V29.4141H14.6016ZM27.1406 57.75C27.1406 55.5625 26.5469 53.7812 25.3594 52.4062C24.1562 51 22.6484 50.2969 20.8359 50.2969C18.8984 50.2969 17.3203 50.9766 16.1016 52.3359C14.8984 53.6797 14.2969 55.4297 14.2969 57.5859C14.2969 59.8047 14.8906 61.5781 16.0781 62.9062C17.2656 64.2656 18.8281 64.9453 20.7656 64.9453C22.5938 64.9453 24.1094 64.2656 25.3125 62.9062C26.5312 61.5312 27.1406 59.8125 27.1406 57.75ZM42.7913 57.4219C42.7913 54.125 43.9709 51.3203 46.3303 49.0078C48.6897 46.6953 51.5647 45.5391 54.9553 45.5391C58.3616 45.5391 61.2522 46.7031 63.6272 49.0312C65.9709 51.3594 67.1428 54.2188 67.1428 57.6094C67.1428 61.0312 65.9631 63.8984 63.6038 66.2109C61.2288 68.5078 58.3147 69.6562 54.8616 69.6562C51.4397 69.6562 48.5725 68.4844 46.26 66.1406C43.9475 63.8281 42.7913 60.9219 42.7913 57.4219ZM48.1819 57.5156C48.1819 59.7969 48.7913 61.6016 50.01 62.9297C51.26 64.2734 52.9084 64.9453 54.9553 64.9453C57.0178 64.9453 58.6663 64.2812 59.9006 62.9531C61.135 61.625 61.7522 59.8516 61.7522 57.6328C61.7522 55.4141 61.135 53.6406 59.9006 52.3125C58.6506 50.9688 57.0022 50.2969 54.9553 50.2969C52.9397 50.2969 51.3069 50.9688 50.0569 52.3125C48.8069 53.6562 48.1819 55.3906 48.1819 57.5156Z" fill="white"/>
<path d="M95.3325 81.4219V66.4453C93.2388 68.5859 90.8481 69.6562 88.1606 69.6562C85.0825 69.6562 82.5278 68.5234 80.4966 66.2578C78.4497 63.9766 77.4263 61.125 77.4263 57.7031C77.4263 54.2344 78.4497 51.3359 80.4966 49.0078C82.5591 46.6953 85.145 45.5391 88.2544 45.5391C90.895 45.5391 93.2544 46.5781 95.3325 48.6562V46.1719H100.629V81.4219H95.3325ZM82.8169 57.4688C82.8169 59.6719 83.4106 61.4609 84.5981 62.8359C85.7856 64.2422 87.2934 64.9453 89.1216 64.9453C91.0591 64.9453 92.6294 64.2734 93.8325 62.9297C95.0513 61.5703 95.6606 59.8047 95.6606 57.6328C95.6606 55.4922 95.0591 53.7266 93.8559 52.3359C92.6528 50.9766 91.0903 50.2969 89.1684 50.2969C87.3559 50.2969 85.8403 50.9844 84.6216 52.3594C83.4184 53.75 82.8169 55.4531 82.8169 57.4688Z" fill="#FC9155"/>
<path d="M118.319 46.1719V59.2734C118.319 63.0547 119.811 64.9453 122.796 64.9453C125.78 64.9453 127.272 63.0547 127.272 59.2734V46.1719H132.546V59.3906C132.546 61.2188 132.319 62.7969 131.866 64.125C131.428 65.3125 130.671 66.3828 129.592 67.3359C127.811 68.8828 125.546 69.6562 122.796 69.6562C120.061 69.6562 117.803 68.8828 116.022 67.3359C114.928 66.3828 114.155 65.3125 113.702 64.125C113.264 63.0625 113.046 61.4844 113.046 59.3906V46.1719H118.319ZM144.962 46.1719H150.259V48.2812C152.103 46.4531 154.181 45.5391 156.493 45.5391C159.149 45.5391 161.22 46.375 162.704 48.0469C163.985 49.4688 164.626 51.7891 164.626 55.0078V69H159.329V56.25C159.329 54 159.017 52.4453 158.392 51.5859C157.782 50.7109 156.673 50.2734 155.063 50.2734C153.313 50.2734 152.071 50.8516 151.337 52.0078C150.618 53.1484 150.259 55.1406 150.259 57.9844V69H144.962V46.1719ZM175.988 57.4219C175.988 54.125 177.167 51.3203 179.527 49.0078C181.886 46.6953 184.761 45.5391 188.152 45.5391C191.558 45.5391 194.448 46.7031 196.823 49.0312C199.167 51.3594 200.339 54.2188 200.339 57.6094C200.339 61.0312 199.159 63.8984 196.8 66.2109C194.425 68.5078 191.511 69.6562 188.058 69.6562C184.636 69.6562 181.769 68.4844 179.456 66.1406C177.144 63.8281 175.988 60.9219 175.988 57.4219ZM181.378 57.5156C181.378 59.7969 181.988 61.6016 183.206 62.9297C184.456 64.2734 186.105 64.9453 188.152 64.9453C190.214 64.9453 191.863 64.2812 193.097 62.9531C194.331 61.625 194.948 59.8516 194.948 57.6328C194.948 55.4141 194.331 53.6406 193.097 52.3125C191.847 50.9688 190.198 50.2969 188.152 50.2969C186.136 50.2969 184.503 50.9688 183.253 52.3125C182.003 53.6562 181.378 55.3906 181.378 57.5156Z" fill="#222222"/>
</svg>
