<svg width="82" height="27" viewBox="0 0 82 27" fill="none" xmlns="http://www.w3.org/2000/svg">
<path d="M3.58398 4.50586V12.5918C4.46289 11.6803 5.45898 11.2246 6.57227 11.2246C7.85482 11.2246 8.92253 11.7031 9.77539 12.6602C10.6283 13.6107 11.0547 14.7956 11.0547 16.2148C11.0547 17.6797 10.625 18.8906 9.76562 19.8477C8.91276 20.7982 7.83529 21.2734 6.5332 21.2734C5.43294 21.2734 4.44987 20.8503 3.58398 20.0039V21H1.38672V4.50586H3.58398ZM8.80859 16.3125C8.80859 15.401 8.5612 14.6589 8.06641 14.0859C7.5651 13.5 6.93685 13.207 6.18164 13.207C5.37435 13.207 4.7168 13.4902 4.20898 14.0566C3.70768 14.6165 3.45703 15.3457 3.45703 16.2441C3.45703 17.1686 3.70443 17.9076 4.19922 18.4609C4.69401 19.0273 5.34505 19.3105 6.15234 19.3105C6.91406 19.3105 7.54557 19.0273 8.04688 18.4609C8.55469 17.888 8.80859 17.1719 8.80859 16.3125ZM15.3297 16.1758C15.3297 14.8021 15.8212 13.6335 16.8043 12.6699C17.7874 11.7064 18.9853 11.2246 20.398 11.2246C21.8173 11.2246 23.0217 11.7096 24.0113 12.6797C24.9879 13.6497 25.4762 14.8411 25.4762 16.2539C25.4762 17.6797 24.9846 18.8743 24.0016 19.8379C23.012 20.7949 21.7978 21.2734 20.359 21.2734C18.9332 21.2734 17.7385 20.7852 16.775 19.8086C15.8115 18.8451 15.3297 17.6341 15.3297 16.1758ZM17.5758 16.2148C17.5758 17.1654 17.8297 17.9173 18.3375 18.4707C18.8583 19.0306 19.5452 19.3105 20.398 19.3105C21.2574 19.3105 21.9443 19.0339 22.4586 18.4805C22.9729 17.9271 23.2301 17.1882 23.2301 16.2637C23.2301 15.3392 22.9729 14.6003 22.4586 14.0469C21.9378 13.487 21.2509 13.207 20.398 13.207C19.5582 13.207 18.8779 13.487 18.357 14.0469C17.8362 14.6068 17.5758 15.3294 17.5758 16.2148ZM37.2219 26.1758V19.9355C36.3495 20.8275 35.3534 21.2734 34.2336 21.2734C32.951 21.2734 31.8866 20.8014 31.0402 19.8574C30.1874 18.9069 29.7609 17.7188 29.7609 16.293C29.7609 14.8477 30.1874 13.64 31.0402 12.6699C31.8996 11.7064 32.9771 11.2246 34.2727 11.2246C35.3729 11.2246 36.356 11.6576 37.2219 12.5234V11.4883H39.4289V26.1758H37.2219ZM32.007 16.1953C32.007 17.1133 32.2544 17.8587 32.7492 18.4316C33.244 19.0176 33.8723 19.3105 34.634 19.3105C35.4413 19.3105 36.0956 19.0306 36.5969 18.4707C37.1047 17.9043 37.3586 17.1686 37.3586 16.2637C37.3586 15.3717 37.1079 14.6361 36.6066 14.0566C36.1053 13.4902 35.4543 13.207 34.6535 13.207C33.8983 13.207 33.2668 13.4935 32.759 14.0664C32.2577 14.6458 32.007 15.3555 32.007 16.1953ZM46.7996 11.4883V16.9473C46.7996 18.5228 47.4214 19.3105 48.6648 19.3105C49.9083 19.3105 50.5301 18.5228 50.5301 16.9473V11.4883H52.7273V16.9961C52.7273 17.7578 52.6329 18.4154 52.4441 18.9688C52.2618 19.4635 51.9461 19.9095 51.4969 20.3066C50.7547 20.9512 49.8107 21.2734 48.6648 21.2734C47.5255 21.2734 46.5848 20.9512 45.8426 20.3066C45.3868 19.9095 45.0646 19.4635 44.8758 18.9688C44.6935 18.526 44.6023 17.8685 44.6023 16.9961V11.4883H46.7996ZM57.9008 11.4883H60.1078V12.3672C60.876 11.6055 61.7419 11.2246 62.7055 11.2246C63.8122 11.2246 64.6749 11.5729 65.2934 12.2695C65.8272 12.862 66.0941 13.8288 66.0941 15.1699V21H63.8871V15.6875C63.8871 14.75 63.7569 14.1022 63.4965 13.7441C63.2426 13.3796 62.7803 13.1973 62.1098 13.1973C61.3806 13.1973 60.863 13.4382 60.557 13.9199C60.2576 14.3952 60.1078 15.2253 60.1078 16.4102V21H57.9008V11.4883ZM70.8281 16.1758C70.8281 14.8021 71.3197 13.6335 72.3027 12.6699C73.2858 11.7064 74.4837 11.2246 75.8965 11.2246C77.3158 11.2246 78.5202 11.7096 79.5098 12.6797C80.4863 13.6497 80.9746 14.8411 80.9746 16.2539C80.9746 17.6797 80.4831 18.8743 79.5 19.8379C78.5104 20.7949 77.2962 21.2734 75.8574 21.2734C74.4316 21.2734 73.237 20.7852 72.2734 19.8086C71.3099 18.8451 70.8281 17.6341 70.8281 16.1758ZM73.0742 16.2148C73.0742 17.1654 73.3281 17.9173 73.8359 18.4707C74.3568 19.0306 75.0436 19.3105 75.8965 19.3105C76.7559 19.3105 77.4427 19.0339 77.957 18.4805C78.4714 17.9271 78.7285 17.1882 78.7285 16.2637C78.7285 15.3392 78.4714 14.6003 77.957 14.0469C77.4362 13.487 76.7493 13.207 75.8965 13.207C75.0566 13.207 74.3763 13.487 73.8555 14.0469C73.3346 14.6068 73.0742 15.3294 73.0742 16.2148Z" fill="#222222"/>
</svg>
