<svg width="107" height="41" viewBox="0 0 107 41" fill="none" xmlns="http://www.w3.org/2000/svg">
<path d="M10.2 18.416H13.32C16.776 18.416 18.504 16.912 18.504 13.904C18.504 10.896 16.776 9.392 13.32 9.392H10.2V18.416ZM10.2 38H0.792V1.808H15.768C19.832 1.808 22.936 2.864 25.08 4.976C27.256 7.088 28.344 10.064 28.344 13.904C28.344 17.744 27.256 20.72 25.08 22.832C22.936 24.944 19.832 26 15.768 26H10.2V38ZM40.0121 25.568C40.0121 26.4 40.1561 27.168 40.4441 27.872C40.7641 28.544 41.1641 29.136 41.6441 29.648C42.1561 30.16 42.7481 30.56 43.4201 30.848C44.1241 31.136 44.8601 31.28 45.6281 31.28C46.3961 31.28 47.1161 31.136 47.7881 30.848C48.4921 30.56 49.0841 30.16 49.5641 29.648C50.0761 29.136 50.4761 28.544 50.7641 27.872C51.0841 27.168 51.2441 26.416 51.2441 25.616C51.2441 24.848 51.0841 24.128 50.7641 23.456C50.4761 22.752 50.0761 22.144 49.5641 21.632C49.0841 21.12 48.4921 20.72 47.7881 20.432C47.1161 20.144 46.3961 20 45.6281 20C44.8601 20 44.1241 20.144 43.4201 20.432C42.7481 20.72 42.1561 21.12 41.6441 21.632C41.1641 22.144 40.7641 22.736 40.4441 23.408C40.1561 24.08 40.0121 24.8 40.0121 25.568ZM30.8441 25.472C30.8441 23.648 31.2121 21.952 31.9481 20.384C32.6841 18.784 33.7081 17.408 35.0201 16.256C36.3321 15.072 37.8841 14.144 39.6761 13.472C41.5001 12.8 43.4841 12.464 45.6281 12.464C47.7401 12.464 49.6921 12.8 51.4841 13.472C53.3081 14.112 54.8761 15.024 56.1881 16.208C57.5321 17.36 58.5721 18.752 59.3081 20.384C60.0441 21.984 60.4121 23.76 60.4121 25.712C60.4121 27.664 60.0281 29.456 59.2601 31.088C58.5241 32.688 57.5001 34.08 56.1881 35.264C54.8761 36.416 53.2921 37.312 51.4361 37.952C49.6121 38.592 47.6281 38.912 45.4841 38.912C43.3721 38.912 41.4201 38.592 39.6281 37.952C37.8361 37.312 36.2841 36.4 34.9721 35.216C33.6921 34.032 32.6841 32.624 31.9481 30.992C31.2121 29.328 30.8441 27.488 30.8441 25.472Z" fill="#FF5500"/>
<path d="M64.5975 19.904C64.5975 17.216 65.0935 14.72 66.0855 12.416C67.0775 10.08 68.4535 8.048 70.2135 6.32C71.9735 4.592 74.0695 3.248 76.5015 2.288C78.9655 1.296 81.6695 0.799998 84.6135 0.799998C87.5255 0.799998 90.2135 1.296 92.6775 2.288C95.1415 3.248 97.2535 4.592 99.0135 6.32C100.806 8.048 102.198 10.08 103.19 12.416C104.182 14.72 104.678 17.216 104.678 19.904C104.678 22.4 104.262 24.72 103.43 26.864C102.63 29.008 101.462 30.912 99.9255 32.576L106.07 39.008L97.4295 40.352L94.1175 36.944C92.7095 37.584 91.2055 38.08 89.6055 38.432C88.0375 38.816 86.3735 39.008 84.6135 39.008C81.6695 39.008 78.9655 38.528 76.5015 37.568C74.0695 36.576 71.9735 35.216 70.2135 33.488C68.4535 31.76 67.0775 29.744 66.0855 27.44C65.0935 25.104 64.5975 22.592 64.5975 19.904ZM74.4375 19.904C74.4375 21.344 74.7095 22.672 75.2535 23.888C75.7975 25.104 76.5335 26.16 77.4615 27.056C78.3895 27.952 79.4615 28.656 80.6775 29.168C81.9255 29.648 83.2375 29.888 84.6135 29.888C85.4455 29.888 86.2775 29.792 87.1095 29.6L81.7335 23.936L90.6135 22.832L93.1095 25.472C94.2615 23.872 94.8375 22.016 94.8375 19.904C94.8375 18.464 94.5655 17.136 94.0215 15.92C93.4775 14.704 92.7255 13.648 91.7655 12.752C90.8375 11.856 89.7495 11.168 88.5015 10.688C87.2855 10.176 85.9895 9.92 84.6135 9.92C83.2375 9.92 81.9255 10.176 80.6775 10.688C79.4615 11.168 78.3895 11.856 77.4615 12.752C76.5335 13.648 75.7975 14.704 75.2535 15.92C74.7095 17.136 74.4375 18.464 74.4375 19.904Z" fill="black" fill-opacity="0.71"/>
</svg>
