<svg width="156" height="156" viewBox="0 0 156 156" fill="none" xmlns="http://www.w3.org/2000/svg">
<path d="M72 28L49 38L95 66L100 77L95 91L80 98L111 117L123 103L128 86L123 59L106 38L89 28H72Z" fill="#FF5500" stroke="#FF5500"/>
<circle cx="78" cy="78" r="51" transform="rotate(51.4423 78 78)" stroke="#727272" stroke-width="8"/>
<line x1="44.976" y1="37.5222" x2="88.976" y2="62.5222" stroke="#727272" stroke-width="8"/>
<line x1="67.1054" y1="92.5989" x2="130.105" y2="131.599" stroke="#727272" stroke-width="8"/>
<path d="M90.5468 92.2745C82.3941 98.7729 70.884 97.5301 64.7913 89.8863C58.6986 82.2426 60.0537 70.7452 68.2064 64.2468C76.3591 57.7484 87.8692 58.9912 93.9619 66.635C100.055 74.2788 98.6995 85.7762 90.5468 92.2745Z" stroke="#727272" stroke-width="8"/>
</svg>
